HIERARCHY
ROOT Hips
{
 OFFSET 0.000000 0.000000 0.000000
 CHANNELS 6 Xposition Yposition Zposition Yrotation Xrotation Zrotation
 JOINT Chest
 {
  OFFSET 0.000000 10.597006 0.000597
  CHANNELS 3 Yrotation Xrotation Zrotation
  JOINT Chest2
  {
   OFFSET 0.000000 11.704727 -0.001085
   CHANNELS 3 Yrotation Xrotation Zrotation
   JOINT Chest3
   {
    OFFSET 0.000000 10.576076 0.000000
    CHANNELS 3 Yrotation Xrotation Zrotation
    JOINT Chest4
    {
     OFFSET 0.000000 10.576076 0.000000
     CHANNELS 3 Yrotation Xrotation Zrotation
     JOINT Neck
     {
      OFFSET 0.000000 14.869514 0.000000
      CHANNELS 3 Yrotation Xrotation Zrotation
      JOINT Head
      {
       OFFSET 0.000000 9.843597 -0.002580
       CHANNELS 3 Yrotation Xrotation Zrotation
       End Site
       {
        OFFSET 0.000000 18.838042 -0.001347
       }
      }
     }
     JOINT RightCollar
     {
      OFFSET -3.229945 8.296076 0.000000
      CHANNELS 3 Yrotation Xrotation Zrotation
      JOINT RightShoulder
      {
       OFFSET -15.063183 0.000000 0.000000
       CHANNELS 3 Yrotation Xrotation Zrotation
       JOINT RightElbow
       {
        OFFSET 0.000000 -32.186481 0.000000
        CHANNELS 3 Yrotation Xrotation Zrotation
        JOINT RightWrist
        {
         OFFSET 0.000000 -26.328084 0.000000
         CHANNELS 3 Yrotation Xrotation Zrotation
         End Site
         {
          OFFSET 0.000000 -19.694862 0.000000
         }
        }
       }
      }
     }
     JOINT LeftCollar
     {
      OFFSET 3.229945 8.296076 0.000000
      CHANNELS 3 Yrotation Xrotation Zrotation
      JOINT LeftShoulder
      {
       OFFSET 15.063183 0.000000 0.000000
       CHANNELS 3 Yrotation Xrotation Zrotation
       JOINT LeftElbow
       {
        OFFSET 0.000000 -32.186481 0.000000
        CHANNELS 3 Yrotation Xrotation Zrotation
        JOINT LeftWrist
        {
         OFFSET 0.000000 -26.328084 0.000000
         CHANNELS 3 Yrotation Xrotation Zrotation
         End Site
         {
          OFFSET 0.000000 -19.694862 0.000000
         }
        }
       }
      }
     }
    }
   }
  }
 }
 JOINT RightHip
 {
  OFFSET -8.601177 -0.002926 -0.000299
  CHANNELS 3 Yrotation Xrotation Zrotation
  JOINT RightKnee
  {
   OFFSET 0.000000 -44.528051 0.000282
   CHANNELS 3 Yrotation Xrotation Zrotation
   JOINT RightAnkle
   {
    OFFSET 0.000000 -43.560721 0.000478
    CHANNELS 3 Yrotation Xrotation Zrotation
    JOINT RightToe
    {
     OFFSET 0.000000 -7.669527 17.403862
     CHANNELS 3 Yrotation Xrotation Zrotation
     End Site
     {
      OFFSET 0.000000 -1.627843 7.076630
     }
    }
   }
  }
 }
 JOINT LeftHip
 {
  OFFSET 8.601177 -0.002926 -0.000299
  CHANNELS 3 Yrotation Xrotation Zrotation
  JOINT LeftKnee
  {
   OFFSET 0.000000 -44.528051 0.000282
   CHANNELS 3 Yrotation Xrotation Zrotation
   JOINT LeftAnkle
   {
    OFFSET 0.000000 -43.560721 0.000478
    CHANNELS 3 Yrotation Xrotation Zrotation
    JOINT LeftToe
    {
     OFFSET 0.000000 -7.669527 17.403862
     CHANNELS 3 Yrotation Xrotation Zrotation
     End Site
     {
      OFFSET 0.000000 -1.627843 7.076630
     }
    }
   }
  }
 }
}
MOTION
Frames: 5
Frame Time: 0.008333
279.847839 96.676780 214.878671 157.384663 -18.369958 -0.863199 -1.952397 13.016437 -1.246602 -0.828680 5.834384 -0.580683 -0.828680 5.834384 -0.580683 -0.615412 4.376589 -0.427201 0.661484 21.259880 -1.253730 1.562569 3.320342 -2.465138 -5.886005 0.931448 11.697938 -8.663471 -17.521796 -18.317288 15.585245 -20.170201 2.453754 4.456567 -13.864740 -1.090111 -0.021073 2.164403 -6.771589 6.904572 -10.884254 19.500590 -1.486510 -11.353729 -15.275689 -14.014607 -17.865414 5.727148 -1.147054 -6.597447 -11.020480 -14.409303 70.794667 -9.832812 10.511817 3.596708 16.421946 0.843904 2.459328 2.175544 -0.206864 10.477604 -8.013649 -12.085754 20.327817 -1.660542 -0.017377 -7.577267 1.468679 -0.010241 -0.740459 1.031247
280.205319 96.687556 214.569771 158.651240 -18.275898 -0.960228 -2.032648 13.029868 -1.259419 -0.866423 5.841731 -0.576505 -0.866423 5.841731 -0.576505 -0.643726 4.382130 -0.423697 0.542751 21.211274 -1.212435 1.336320 3.226159 -2.356686 -5.908290 0.938913 11.663484 -8.738587 -17.354327 -18.361773 15.545950 -20.324882 2.382266 4.503722 -13.895247 -1.110443 -0.046728 2.135239 -6.803218 6.717568 -11.088202 19.619817 -0.973662 -11.949543 -15.735568 -14.079838 -17.987606 5.641302 -0.957496 -7.291011 -11.000298 -14.772888 69.827726 -9.880958 9.913241 3.394535 16.194855 0.779814 2.521670 2.123416 -0.567684 10.396388 -7.933902 -12.442409 20.846182 -1.733244 -0.489589 -7.928777 1.274146 0.001334 -0.712364 0.984078
280.555028 96.690142 214.276480 159.922757 -18.191698 -1.013731 -2.117218 13.064643 -1.322629 -0.892235 5.853762 -0.574391 -0.892235 5.853762 -0.574391 -0.663074 4.391175 -0.421846 0.417791 21.150821 -1.162499 1.096337 3.109989 -2.230723 -5.928142 0.943012 11.628780 -8.816445 -17.180400 -18.441162 15.492669 -20.467447 2.336527 4.501586 -13.927056 -1.178789 -0.085981 2.096728 -6.833315 6.495808 -11.285499 19.764640 -0.530165 -12.454903 -16.136731 -14.116771 -18.238604 5.491238 -0.792629 -7.954159 -11.002133 -14.985162 68.844483 -9.931398 9.401873 3.171352 16.085812 0.696655 2.570937 2.023891 -0.967148 10.330240 -7.902768 -12.807139 21.306668 -1.814482 -0.869621 -8.220849 1.105555 0.005487 -0.701645 0.921402
280.918799 96.686792 214.003494 161.177132 -18.105986 -1.094493 -2.178579 13.107554 -1.358593 -0.912984 5.867761 -0.576119 -0.912984 5.867761 -0.576119 -0.678590 4.401696 -0.422919 0.297737 21.087237 -1.100817 0.861686 2.988289 -2.084661 -5.933417 0.937803 11.620707 -8.892707 -17.027217 -18.500159 15.429342 -20.544526 2.274130 4.482298 -13.961445 -1.281425 -0.118959 2.058776 -6.862167 6.234810 -11.477958 19.937770 -0.046032 -13.108373 -16.603064 -14.192460 -18.344584 5.385628 -0.707429 -8.594815 -10.968115 -14.926892 67.773008 -9.839081 9.048028 3.007919 15.988135 0.615852 2.604300 1.909538 -1.398969 10.251282 -7.847114 -13.149390 21.765545 -1.873950 -1.213180 -8.523702 0.934763 0.014679 -0.678527 0.850143
281.271685 96.678614 213.742286 162.418873 -18.013628 -1.147449 -2.225399 13.160114 -1.421807 -0.922560 5.883011 -0.580978 -0.922560 5.883011 -0.580978 -0.685702 4.413151 -0.426443 0.173916 21.020458 -1.030825 0.617586 2.860892 -1.922176 -5.945250 0.931330 11.600551 -8.975741 -16.864316 -18.575903 15.333759 -20.613772 2.237396 4.448001 -13.995908 -1.395119 -0.172338 2.013684 -6.895407 5.951506 -11.672017 20.136839 0.352945 -13.663863 -16.991451 -14.247945 -18.582604 5.243727 -0.645519 -9.204287 -10.938599 -14.689335 66.666070 -9.698749 8.848170 2.802686 15.938621 0.541252 2.650988 1.792215 -1.835114 10.165918 -7.817514 -13.525573 22.194289 -1.950411 -1.514742 -8.811505 0.807820 0.013302 -0.646553 0.763377
